<?xml version="1.0" encoding="UTF-8" standalone="no"?>
<!-- Created with Inkscape (http://www.inkscape.org/) -->

<svg
   xmlns:dc="http://purl.org/dc/elements/1.1/"
   xmlns:cc="http://creativecommons.org/ns#"
   xmlns:rdf="http://www.w3.org/1999/02/22-rdf-syntax-ns#"
   xmlns:svg="http://www.w3.org/2000/svg"
   xmlns="http://www.w3.org/2000/svg"
   xmlns:sodipodi="http://sodipodi.sourceforge.net/DTD/sodipodi-0.dtd"
   xmlns:inkscape="http://www.inkscape.org/namespaces/inkscape"
   width="210mm"
   height="297mm"
   viewBox="0 0 210 297"
   version="1.1"
   id="svg8"
   inkscape:version="0.92.1 r15371"
   sodipodi:docname="fella2drawing.svg.2017_09_09_14_32_08.0.svg">
  <defs
     id="defs2" />
  <sodipodi:namedview
     id="base"
     pagecolor="#ffffff"
     bordercolor="#666666"
     borderopacity="1.0"
     inkscape:pageopacity="0.0"
     inkscape:pageshadow="2"
     inkscape:zoom="7.9195959"
     inkscape:cx="103.63588"
     inkscape:cy="579.80232"
     inkscape:document-units="mm"
     inkscape:current-layer="layer3"
     showgrid="false"
     inkscape:window-width="2736"
     inkscape:window-height="1699"
     inkscape:window-x="-13"
     inkscape:window-y="-13"
     inkscape:window-maximized="1"
     inkscape:measure-start="-301.429,845.714"
     inkscape:measure-end="0,0"
     inkscape:snap-midpoints="true" />
  <metadata
     id="metadata5">
    <rdf:RDF>
      <cc:Work
         rdf:about="">
        <dc:format>image/svg+xml</dc:format>
        <dc:type
           rdf:resource="http://purl.org/dc/dcmitype/StillImage" />
        <dc:title />
      </cc:Work>
    </rdf:RDF>
  </metadata>
  <g
     inkscape:groupmode="layer"
     id="layer6"
     inkscape:label="Right_Leg 1">
    <path
       style="display:inline;fill:#00aad4;fill-opacity:1;stroke:none;stroke-width:1.77352715;stroke-miterlimit:4;stroke-dasharray:none;stroke-opacity:1"
       d="m 94.673185,194.26175 c 7.386985,-12.91179 15.150915,-23.16695 28.891385,-31.40216 1.9928,-1.19436 4.22773,-2.54049 6.02209,-1.06046 l 54.3576,44.83495 c 1.79437,1.48002 1.453,3.28348 1.27736,5.44955 -0.85127,10.49745 -6.68422,18.27347 -17.31374,22.32066 -2.973,1.13197 -3.99067,2.16203 -6.02212,1.06048 L 95.950545,199.7113 c -2.081954,-1.12894 -2.375461,-3.53019 -1.27736,-5.44955 z"
       id="rect4700-2"
       inkscape:connector-curvature="0"
       sodipodi:nodetypes="sssssssss" />
    <path
       style="display:inline;fill:#800080;fill-opacity:0.09065156;stroke:none;stroke-width:6.70309496;stroke-miterlimit:4;stroke-dasharray:none;stroke-opacity:1"
       d="M 365.90234 720.48633 C 363.18385 724.97569 360.4934 729.54448 357.82031 734.2168 C 353.67001 741.47107 354.77963 750.54759 362.64844 754.81445 L 611.85156 889.94531 C 619.52948 894.10865 623.37675 890.21581 634.61328 885.9375 C 674.78785 870.64103 696.83338 841.25157 700.05078 801.57617 C 700.6333 794.39228 701.6936 788.26511 697.36328 783.0918 A 183.10466 105.27244 38.798764 0 1 694.54492 804.10938 A 183.10466 105.27244 38.798764 0 1 540.36328 834.30078 A 171.1784 112.60695 31.689586 0 1 509.68359 822.83984 A 171.1784 112.60695 31.689586 0 1 487.59961 811.25 C 436.33315 784.81905 392.0584 754.96175 365.90234 720.48633 z "
       transform="scale(0.26458333)"
       id="path4767" />
    <path
       style="fill:#00aad4;fill-opacity:1;stroke:none;stroke-width:1.94767153;stroke-miterlimit:4;stroke-dasharray:none;stroke-opacity:1"
       d="m 192.42472,175.36845 c 6.4204,0 12.74176,-3.04502 19.26119,0 2.29705,1.07288 4.30099,2.06509 4.58891,4.58891 1.38296,12.12281 -4.49491,43.71897 -3.56154,65.10031 0.11083,2.53903 -2.07052,4.22284 -4.58891,4.58891 l -10.96332,1.59359 c -2.5184,0.36606 -3.88603,-0.63219 -4.5889,-4.58891 0,0 -5.99852,-24.813 -9.09164,-44.95908 -1.11855,-7.28536 4.35531,-21.73482 4.35531,-21.73482 0.50019,-2.49617 2.04665,-4.58891 4.5889,-4.58891 z"
       id="rect4779"
       inkscape:connector-curvature="0"
       sodipodi:nodetypes="ssssssssss"
       transform="matrix(0.98657145,0.16333023,-0.15621506,0.98772308,0,0)" />
    <path
       style="fill:#800080;fill-opacity:0.08455882;stroke:none;stroke-width:7.36118269;stroke-miterlimit:4;stroke-dasharray:none;stroke-opacity:1"
       d="m 696.69084,794.02594 c 0.0671,27.62383 -7.65388,58.29824 -22.96763,93.47071 -1.40906,3.18403 -2.33344,6.82892 -3.2207,10.18945 -1.09472,4.14632 -2.1413,7.83346 -2.77539,12.11914 -13.88968,75.68122 -27.90581,145.79756 -84.55274,135.47066 -4.11575,-0.502 -7.88795,-16.5534 -11.62807,-18.4854 0.52296,8.9844 0.31229,19.5667 2.70121,25.6441 2.38893,6.0774 7.37745,7.65 12.58451,7.1865 l 41.82031,0.8184 c 9.60665,0.188 18.73448,-4.7519 19.82032,-14.2989 9.14362,-80.3954 49.716,-194.7184 51.71679,-240.8281 0.13573,-3.12815 -1.22846,-8.07701 -3.49861,-11.28656 z"
       id="path5085"
       transform="scale(0.26458333)"
       inkscape:connector-curvature="0"
       sodipodi:nodetypes="ccccccscsccc" />
  </g>
  <g
     inkscape:groupmode="layer"
     id="layer4"
     inkscape:label="Left_Arm">
    <g
       id="g4622">
      <rect
         style="fill:#ff2a2a;fill-opacity:1;stroke:none;stroke-width:1.86500001;stroke-miterlimit:4;stroke-dasharray:none;stroke-opacity:1"
         id="rect4555-5"
         width="32.316963"
         height="38.742561"
         x="94.856667"
         y="105.71064"
         ry="16.158482"
         transform="rotate(-15.211957)" />
      <path
         inkscape:connector-curvature="0"
         id="rect4561-0"
         d="m 152.59281,79.500397 c 0.47829,0.958329 0.86429,1.986208 1.13625,3.080332 l 1.44179,5.799865 c 0.57595,2.317051 0.5881,4.659331 0.128,6.878191 -0.16461,-0.50019 -0.38668,-0.99049 -0.67319,-1.46035 -2.00319,-3.28514 -6.26056,-4.31718 -9.54569,-2.31399 l -9.43921,5.75576 c -3.28513,2.00318 -4.31717,6.260555 -2.31398,9.545695 0.22311,0.3659 0.47559,0.70199 0.75019,1.01091 -2.92861,-0.88247 -5.51118,-2.69668 -7.34625,-5.21248 3.54748,6.29331 10.99875,9.60729 18.30301,7.62113 8.63815,-2.34887 13.70123,-11.193785 11.35236,-19.831925 l -1.68608,-6.200488 c -0.46449,-1.708225 -1.18645,-3.27371 -2.1072,-4.67265 z"
         style="fill:#800080;fill-opacity:0.07843137;stroke:none;stroke-width:1.86500001;stroke-miterlimit:4;stroke-dasharray:none;stroke-opacity:1" />
      <rect
         transform="rotate(-15.211957)"
         ry="16.158482"
         y="105.62707"
         x="94.93132"
         height="38.742561"
         width="32.316963"
         id="rect4599"
         style="fill:#800080;fill-opacity:0.06985294;stroke:none;stroke-width:1.86500001;stroke-miterlimit:4;stroke-dasharray:none;stroke-opacity:1" />
    </g>
  </g>
  <g
     inkscape:groupmode="layer"
     id="layer2"
     inkscape:label="Body">
    <ellipse
       style="fill:#ff2a2a;fill-opacity:1;stroke:none;stroke-width:1.86500001;stroke-miterlimit:4;stroke-dasharray:none;stroke-opacity:1"
       id="path4525"
       cx="86.934517"
       cy="126.24926"
       rx="59.342258"
       ry="69.264137" />
    <path
       style="fill:#800080;fill-opacity:0.0784983;stroke:none;stroke-width:7.04881907;stroke-miterlimit:4;stroke-dasharray:none;stroke-opacity:1"
       d="M 552.4082 462.37695 A 224.2857 237.5 0 0 1 499.2168 606.23438 A 173.92857 108.92856 0 0 0 500 596.44727 A 173.92857 108.92856 0 0 0 326.07227 487.51953 A 173.92857 108.92856 0 0 0 152.14258 596.44727 A 173.92857 108.92856 0 0 0 152.31836 599.55078 A 224.2857 237.5 0 0 1 104.74219 466.51562 A 224.2857 261.78572 0 0 0 104.28516 477.16211 A 224.2857 261.78572 0 0 0 328.57227 738.94922 A 224.2857 261.78572 0 0 0 552.85742 477.16211 A 224.2857 261.78572 0 0 0 552.4082 462.37695 z "
       id="ellipse4530"
       transform="scale(0.26458333)" />
    <g
       id="g4720"
       transform="matrix(1.0274451,0,0,1,-1.1073773,0)">
      <path
         sodipodi:nodetypes="cssscccsssc"
         inkscape:connector-curvature="0"
         id="rect4709"
         d="m 43.075854,157.2433 c 13.296838,-3.40987 56.556855,-1.85838 85.260506,-0.94494 1.45761,0.0464 3.24637,1.1826 3.41279,2.6324 l 1.10949,9.66525 c 0.16642,1.44979 -12.53101,25.93502 -15.2946,24.27153 -7.8842,4.32779 -11.77605,5.58198 -18.716453,9.35017 -6.272226,-0.30767 -15.592995,1.49777 -32.998668,-1.22368 -1.440842,-0.22528 -25.554221,-28.5805 -25.499959,-33.15397 l 0.09449,-7.96436 c 0.0173,-1.45825 1.92608,-2.45127 2.6324,-2.6324 z"
         style="fill:#00aad4;fill-opacity:1;stroke:none;stroke-width:2.10732484;stroke-miterlimit:4;stroke-dasharray:none;stroke-opacity:1" />
      <path
         style="fill:#800080;fill-opacity:0.125;stroke:none;stroke-width:7.96469212;stroke-miterlimit:4;stroke-dasharray:none;stroke-opacity:1"
         d="m 152.51367,633.27539 -0.0137,1.08008 c -0.0233,1.96365 1.18112,5.15698 3.25586,9.18945 -1.27894,-3.38977 -2.3606,-6.81588 -3.24219,-10.26953 z m 349.26953,2.0957 c -3.43985,11.7876 -9.10911,22.90405 -16.64258,33.15235 a 164.64286,131.78572 0 0 1 -154.06835,85.78125 164.64286,131.78572 0 0 1 -141.16993,-64.2461 c -2.58381,-2.24915 -5.08092,-4.56159 -7.46093,-6.95117 27.03067,35.75787 63.07092,76.03574 66.43554,76.55469 40.79078,6.29149 124.72071,4.625 124.72071,4.625 0,0 32.10087,-16.96245 70.73828,-35.33984 10.44506,6.2872 58.86434,-86.32497 57.80664,-91.73438 z"
         transform="scale(0.26458333)"
         id="path4713"
         inkscape:connector-curvature="0" />
    </g>
  </g>
  <g
     inkscape:label="Head"
     inkscape:groupmode="layer"
     id="layer1"
     style="display:inline">
    <ellipse
       style="fill:#e9c6af;stroke:none;stroke-width:1.89635301;stroke-miterlimit:4;stroke-dasharray:none;stroke-opacity:1"
       id="path4485"
       cx="124.07068"
       cy="58.780506"
       rx="38.632389"
       ry="43.924057" />
    <path
       style="fill:#800080;fill-opacity:0.03921569;stroke:none;stroke-width:7.16731834;stroke-miterlimit:4;stroke-dasharray:none;stroke-opacity:1"
       d="M 468.92773,56.150391 A 146.01218,166.01218 0 0 0 322.91602,222.16211 146.01218,166.01218 0 0 0 468.92773,388.17383 146.01218,166.01218 0 0 0 614.94141,222.16211 146.01218,166.01218 0 0 0 468.92773,56.150391 Z m -0.5039,1.009765 A 134.39543,152.80422 0 0 1 602.81836,209.96484 134.39543,152.80422 0 0 1 468.42383,362.76953 134.39543,152.80422 0 0 1 334.02734,209.96484 134.39543,152.80422 0 0 1 468.42383,57.160156 Z"
       transform="scale(0.26458333)"
       id="ellipse4518"
       inkscape:connector-curvature="0" />
    <path
       style="fill:#ffffff;stroke:none;stroke-width:7.04881907;stroke-miterlimit:4;stroke-dasharray:none;stroke-opacity:1"
       d="M 604.05273 179.75977 L 552.67969 203.61914 A 30.357142 46.07143 0 0 0 552.13477 212.16211 A 30.357142 46.07143 0 0 0 582.49219 258.23438 A 30.357142 46.07143 0 0 0 612.84961 212.16211 A 30.357142 46.07143 0 0 0 604.05273 179.75977 z "
       transform="scale(0.26458333)"
       id="path4489" />
    <ellipse
       style="fill:#000000;stroke:none;stroke-width:0.98969686;stroke-miterlimit:4;stroke-dasharray:none;stroke-opacity:1"
       id="path4491"
       cx="157.33063"
       cy="55.851185"
       rx="3.3072915"
       ry="5.291666" />
    <ellipse
       style="fill:#ffffff;stroke:none;stroke-width:0.59819329;stroke-miterlimit:4;stroke-dasharray:none;stroke-opacity:1"
       id="path4495"
       cx="158.40543"
       cy="52.761379"
       rx="0.87517262"
       ry="1.1462075" />
    <path
       style="fill:#ffffff;stroke:none;stroke-width:7.04881907;stroke-miterlimit:4;stroke-dasharray:none;stroke-opacity:1"
       d="M 459.59961 175.74609 A 30.357142 46.071432 0 0 0 446.6875 213.38281 A 30.357142 46.071432 0 0 0 477.04492 259.45312 A 30.357142 46.071432 0 0 0 507.40234 213.38281 A 30.357142 46.071432 0 0 0 505.41211 197.02539 L 459.59961 175.74609 z "
       transform="scale(0.26458333)"
       id="path4489-9" />
    <ellipse
       style="fill:#000000;stroke:none;stroke-width:0.98969686;stroke-miterlimit:4;stroke-dasharray:none;stroke-opacity:1"
       id="path4491-8"
       cx="129.43083"
       cy="56.173939"
       rx="3.3072917"
       ry="5.291666" />
    <ellipse
       style="fill:#ffffff;stroke:none;stroke-width:0.59819329;stroke-miterlimit:4;stroke-dasharray:none;stroke-opacity:1"
       id="path4495-5"
       cx="130.50563"
       cy="53.084133"
       rx="0.87517262"
       ry="1.1462075" />
  </g>
  <g
     inkscape:groupmode="layer"
     id="layer5"
     inkscape:label="Right_Leg"
     style="display:inline">
    <path
       transform="rotate(23.631364)"
       style="fill:#00aad4;fill-opacity:1;stroke:none;stroke-width:1.86500001;stroke-miterlimit:4;stroke-dasharray:none;stroke-opacity:1"
       d="m 108.70455,129.51441 c 16.11263,-1.67567 29.96905,-1.43587 45.28658,4.97209 2.22153,0.92936 4.71915,1.96762 4.34674,4.34674 L 147.0563,210.9049 c -0.37242,2.37913 -2.23749,3.18488 -4.34674,4.34674 -10.22203,5.6307 -20.69856,5.49359 -30.39075,-0.86587 -2.71084,-1.77869 -4.23539,-1.99973 -4.34674,-4.34674 l -3.61426,-76.17788 c -0.11412,-2.40538 1.95156,-4.09765 4.34674,-4.34674 z"
       id="rect4700"
       inkscape:connector-curvature="0"
       sodipodi:nodetypes="sssssssss" />
    <path
       style="fill:#800080;fill-opacity:0.09556314;stroke:none;stroke-width:7.04881907;stroke-miterlimit:4;stroke-dasharray:none;stroke-opacity:1"
       d="M 332.07617 701.75977 A 95.913662 221.75397 32.513121 0 1 300.33594 770.38867 A 95.913662 221.75397 32.513121 0 1 97.076172 934.07227 A 95.913662 221.75397 32.513121 0 1 62.28125 882.5957 A 108.33565 187.34236 28.206906 0 1 60.3125 878.65625 L 55.648438 890.85938 C 52.478216 899.1548 57.421517 902.23023 64.113281 912.49609 C 88.038609 949.20021 124.10785 965.54727 168.0332 961.53711 C 177.09692 960.70963 184.77594 960.74404 189.66992 953.07031 L 337.92383 720.60938 C 342.13921 713.99963 337.467 707.61235 332.07617 701.75977 z "
       transform="scale(0.26458333)"
       id="path4726" />
    <path
       style="fill:#00aad4;fill-opacity:1;stroke:none;stroke-width:1.91644156;stroke-miterlimit:4;stroke-dasharray:none;stroke-opacity:1"
       d="m 38.405183,224.17484 c -6.869795,1.64365 -15.158988,-0.20551 -20.609372,4.93093 -1.231814,1.16086 -3.730286,6.14752 -3.37716,8.34671 1.696223,10.56353 15.932476,32.36088 20.535345,50.60658 0.546597,2.16667 3.321763,3.02631 6.112332,2.68988 l 12.148191,-1.46456 c 2.790574,-0.33646 3.992406,-1.52726 3.707877,-5.03942 0,0 -0.08223,-22.43245 -2.050556,-40.19076 -0.7118,-6.42187 -10.354337,-17.18948 -10.354337,-17.18948 -1.189156,-1.97415 -3.392125,-3.3407 -6.11232,-2.68988 z"
       id="rect4779-1"
       inkscape:connector-curvature="0"
       sodipodi:nodetypes="ssssssssss" />
    <path
       style="fill:#800080;fill-opacity:0.08088235;stroke:none;stroke-width:7.24324369;stroke-miterlimit:4;stroke-dasharray:none;stroke-opacity:1"
       d="m 181.29102,915.87305 c 6.45656,61.32718 6.72656,138.79685 6.72656,138.79685 0.52188,6.7822 -0.48458,11.0542 -3.07031,13.709 -6.55706,13.9697 -26.57993,20.5118 -45.92774,15.0059 -3.29986,-0.9564 -6.46476,-2.238 -9.41015,-3.8106 0.892,3.0907 1.74337,6.1531 2.5,9.1524 2.06587,8.189 12.55453,11.4395 23.10156,10.1679 l 45.91406,-5.5371 c 10.54705,-1.2716 15.09101,-5.7706 14.01562,-19.0449 0,0 -0.31261,-84.78432 -7.75195,-151.90234 -13.34208,-51.82189 -17.39843,-4.35807 -26.09765,-6.53711 z"
       transform="scale(0.26458333)"
       id="path5135"
       inkscape:connector-curvature="0"
       sodipodi:nodetypes="ccccccccccc" />
  </g>
  <g
     inkscape:groupmode="layer"
     id="layer3"
     inkscape:label="Right_Arm">
    <g
       id="g4571"
       transform="rotate(10.581938,81.740428,116.75784)">
      <rect
         style="fill:#ff2a2a;fill-opacity:1;stroke:none;stroke-width:1.86500001;stroke-miterlimit:4;stroke-dasharray:none;stroke-opacity:1"
         id="rect4555"
         width="32.316963"
         height="38.742561"
         x="50.38076"
         y="60.520081"
         ry="16.158482"
         transform="rotate(16.161726)" />
      <path
         id="rect4561"
         transform="scale(0.26458333)"
         d="m 221.93164,346.13086 c -0.34229,4.0336 -1.11924,8.11 -2.39453,12.17578 l -6.75977,21.55274 c -2.70071,8.61021 -7.27038,16.19246 -13.12109,22.44726 0.45303,-1.93802 0.70117,-3.95714 0.70117,-6.03711 0,-14.5425 -11.7075,-26.25 -26.25,-26.25 h -41.78515 c -14.5425,0 -26.25,11.7075 -26.25,26.25 0,1.61977 0.15341,3.20111 0.43164,4.73828 -7.71395,-8.61024 -12.477906,-19.54628 -13.449222,-31.27539 -0.935839,27.28837 16.587972,52.6441 44.066402,60.60742 32.49647,9.41756 66.23869,-9.16174 75.65625,-41.6582 l 6.75977,-23.32617 c 1.86236,-6.4263 2.61304,-12.89857 2.39453,-19.22461 z"
         style="fill:#800080;fill-opacity:0.07843137;stroke:none;stroke-width:7.04881907;stroke-miterlimit:4;stroke-dasharray:none;stroke-opacity:1"
         inkscape:connector-curvature="0" />
    </g>
    <path
       transform="matrix(0.77208622,0.63551779,-0.47728831,0.87874676,0,0)"
       style="fill:#e9c6af;fill-opacity:1;stroke:none;stroke-width:1.30760074;stroke-miterlimit:4;stroke-dasharray:none;stroke-opacity:1"
       d="m 84.080992,42.356083 c 11.562405,-0.759195 11.850437,6.4042 13.282476,13.449165 2.654642,13.059599 3.363362,22.069906 0,39.167771 -1.492816,7.588831 -5.923984,13.449161 -13.282476,13.449161 -7.358492,0 -12.304497,-6.24622 -13.282477,-13.449161 -1.626316,-11.978022 -2.827293,-23.753363 0,-39.167771 1.391936,-7.588838 5.846874,-12.960938 13.282477,-13.449165 z"
       id="rect5143"
       inkscape:connector-curvature="0"
       sodipodi:nodetypes="sssssss" />
    <path
       style="fill:#800080;fill-opacity:0.05514706;stroke:none;stroke-width:4.89691687;stroke-miterlimit:4;stroke-dasharray:none;stroke-opacity:1"
       d="M 143.76953 333.77148 C 142.09972 333.77747 140.44189 333.91526 138.79492 334.15039 C 140.50233 333.92072 142.2229 333.78803 143.95508 333.77539 C 143.89334 333.77529 143.83124 333.77126 143.76953 333.77148 z M 192.5625 382.26172 C 191.18723 391.12941 187.2868 400.15013 183.92578 409.49414 C 168.06478 453.5894 153.83678 481.62203 113.05273 524.79297 C 94.950869 543.95423 71.375507 551.77116 49.835938 536.10547 C 38.763341 528.05241 32.554316 516.49529 30.505859 504.00391 C 27.503715 525.72523 33.148015 548.37196 49.773438 562.05664 C 71.246409 579.73142 94.749027 570.90972 112.79492 549.29102 C 153.45287 500.58342 167.63726 468.95558 183.44922 419.20508 C 187.49627 406.47151 192.33616 394.26869 192.5625 382.26172 z "
       transform="scale(0.26458333)"
       id="path5150" />
    <path
       transform="matrix(0.31964426,-0.94753762,0.98191111,0.18934249,0,0)"
       style="fill:#ff6600;fill-opacity:1;stroke:none;stroke-width:1.81855643;stroke-miterlimit:4;stroke-dasharray:none;stroke-opacity:1"
       d="m -136.63303,54.761897 1.72141,-0.04657 c 4.6461,-0.125679 8.71604,3.69364 8.35899,8.358994 l -2.61722,34.197964 c -0.35704,4.665355 -1.11089,6.282125 -6.06062,6.282125 -4.94973,0 -6.1145,-1.05015 -6.70889,-5.563502 l -4.29698,-32.627651 c -0.5944,-4.513355 4.95721,-10.475687 9.60331,-10.601365 z"
       id="rect5155"
       inkscape:connector-curvature="0"
       sodipodi:nodetypes="cssscsssc" />
  </g>
</svg>
